<svg xmlns="http://www.w3.org/2000/svg" xmlns:xlink="http://www.w3.org/1999/xlink" width="500" zoomAndPan="magnify" viewBox="0 0 375 374.999991" height="500" preserveAspectRatio="xMidYMid meet" version="1.0"><defs><g/><clipPath id="67047f7d1e"><path d="M 110.976562 117 L 263.976562 117 L 263.976562 195.671875 L 110.976562 195.671875 Z M 110.976562 117 " clip-rule="nonzero"/></clipPath><clipPath id="ccd0f897c4"><path d="M 136 142 L 239 142 L 239 195.671875 L 136 195.671875 Z M 136 142 " clip-rule="nonzero"/></clipPath></defs><rect x="-37.5" width="450" fill="#ffffff" y="-37.499999" height="449.999989" fill-opacity="1"/><rect x="-37.5" width="450" fill="#ffffff" y="-37.499999" height="449.999989" fill-opacity="1"/><path fill="#c7d1ff" d="M 113.164062 193.613281 C 113.164062 152.5625 146.441406 119.28125 187.496094 119.28125 C 228.546875 119.28125 261.828125 152.5625 261.828125 193.613281 L 113.164062 193.613281 " fill-opacity="1" fill-rule="nonzero"/><g clip-path="url(#67047f7d1e)"><path fill="#5170ff" d="M 115.386719 191.425781 L 259.601562 191.425781 C 258.445312 152.652344 226.546875 121.464844 187.496094 121.464844 C 148.441406 121.464844 116.542969 152.652344 115.386719 191.425781 Z M 264.011719 195.796875 L 110.976562 195.796875 L 110.976562 193.613281 C 110.976562 151.421875 145.304688 117.09375 187.496094 117.09375 C 229.6875 117.09375 264.011719 151.421875 264.011719 193.613281 L 264.011719 195.796875 " fill-opacity="1" fill-rule="nonzero"/></g><path fill="#ffffff" d="M 236.683594 193.613281 L 138.308594 193.613281 C 138.308594 166.449219 160.332031 144.433594 187.496094 144.433594 C 214.65625 144.433594 236.683594 166.449219 236.683594 193.613281 " fill-opacity="1" fill-rule="nonzero"/><g clip-path="url(#ccd0f897c4)"><path fill="#5170ff" d="M 140.550781 191.425781 L 234.441406 191.425781 C 233.300781 166.523438 212.675781 146.621094 187.496094 146.621094 C 162.3125 146.621094 141.6875 166.523438 140.550781 191.425781 Z M 238.859375 195.796875 L 136.132812 195.796875 L 136.132812 193.613281 C 136.132812 165.292969 159.175781 142.238281 187.496094 142.238281 C 215.816406 142.238281 238.859375 165.292969 238.859375 193.613281 L 238.859375 195.796875 " fill-opacity="1" fill-rule="nonzero"/></g><path fill="#5170ff" d="M 187.496094 131.65625 C 187.007812 131.65625 186.625 131.265625 186.625 130.777344 L 186.625 119.28125 C 186.625 118.792969 187.007812 118.402344 187.496094 118.402344 C 187.980469 118.402344 188.363281 118.792969 188.363281 119.28125 L 188.363281 130.777344 C 188.363281 131.265625 187.980469 131.65625 187.496094 131.65625 " fill-opacity="1" fill-rule="nonzero"/><path fill="#5170ff" d="M 187.496094 126.15625 C 187.007812 126.15625 186.625 125.761719 186.625 125.285156 L 186.625 119.28125 C 186.625 118.792969 187.007812 118.402344 187.496094 118.402344 C 187.980469 118.402344 188.363281 118.792969 188.363281 119.28125 L 188.363281 125.285156 C 188.363281 125.761719 187.980469 126.15625 187.496094 126.15625 " fill-opacity="1" fill-rule="nonzero"/><path fill="#5170ff" d="M 196.191406 126.6875 C 196.152344 126.6875 196.105469 126.6875 196.070312 126.679688 C 195.59375 126.613281 195.257812 126.171875 195.320312 125.699219 L 196.152344 119.746094 C 196.226562 119.269531 196.667969 118.933594 197.144531 119.007812 C 197.621094 119.074219 197.957031 119.515625 197.890625 119.992188 L 197.050781 125.929688 C 196.992188 126.371094 196.621094 126.6875 196.191406 126.6875 " fill-opacity="1" fill-rule="nonzero"/><path fill="#5170ff" d="M 190.6875 126.425781 C 190.660156 126.425781 190.640625 126.425781 190.613281 126.425781 C 190.128906 126.378906 189.773438 125.957031 189.820312 125.484375 L 190.34375 119.503906 C 190.378906 119.019531 190.800781 118.664062 191.285156 118.710938 C 191.761719 118.75 192.128906 119.167969 192.082031 119.652344 L 191.558594 125.632812 C 191.519531 126.089844 191.136719 126.425781 190.6875 126.425781 " fill-opacity="1" fill-rule="nonzero"/><path fill="#5170ff" d="M 208.183594 129.292969 C 208.109375 129.292969 208.023438 129.285156 207.941406 129.265625 C 207.472656 129.125 207.210938 128.640625 207.34375 128.183594 L 208.996094 122.410156 C 209.128906 121.953125 209.621094 121.679688 210.078125 121.8125 C 210.546875 121.941406 210.816406 122.429688 210.675781 122.894531 L 209.023438 128.660156 C 208.914062 129.042969 208.566406 129.292969 208.183594 129.292969 " fill-opacity="1" fill-rule="nonzero"/><path fill="#5170ff" d="M 202.597656 127.695312 C 202.515625 127.695312 202.429688 127.675781 202.355469 127.660156 C 201.886719 127.527344 201.617188 127.042969 201.757812 126.574219 L 203.410156 120.8125 C 203.542969 120.34375 204.027344 120.074219 204.484375 120.207031 C 204.953125 120.34375 205.222656 120.820312 205.082031 121.289062 L 203.429688 127.0625 C 203.316406 127.445312 202.972656 127.695312 202.597656 127.695312 " fill-opacity="1" fill-rule="nonzero"/><path fill="#5170ff" d="M 214.105469 131.46875 C 213.984375 131.46875 213.863281 131.441406 213.742188 131.394531 C 213.300781 131.199219 213.105469 130.675781 213.300781 130.238281 L 215.75 124.753906 C 215.945312 124.316406 216.460938 124.117188 216.898438 124.316406 C 217.335938 124.511719 217.542969 125.023438 217.335938 125.464844 L 214.898438 130.957031 C 214.757812 131.273438 214.441406 131.46875 214.105469 131.46875 " fill-opacity="1" fill-rule="nonzero"/><path fill="#5170ff" d="M 224.371094 136.503906 C 224.210938 136.503906 224.054688 136.457031 223.902344 136.375 C 223.492188 136.113281 223.371094 135.578125 223.625 135.167969 L 226.808594 130.078125 C 227.0625 129.667969 227.601562 129.546875 228.011719 129.796875 C 228.425781 130.058594 228.546875 130.59375 228.292969 131.003906 L 225.109375 136.09375 C 224.941406 136.355469 224.660156 136.503906 224.371094 136.503906 " fill-opacity="1" fill-rule="nonzero"/><path fill="#5170ff" d="M 218.699219 134.382812 C 218.542969 134.382812 218.382812 134.335938 218.242188 134.242188 C 217.832031 133.992188 217.710938 133.449219 217.964844 133.039062 L 221.140625 127.957031 C 221.402344 127.546875 221.941406 127.417969 222.34375 127.675781 C 222.753906 127.929688 222.875 128.472656 222.625 128.882812 L 219.449219 133.964844 C 219.28125 134.234375 218.992188 134.382812 218.699219 134.382812 " fill-opacity="1" fill-rule="nonzero"/><path fill="#5170ff" d="M 231.542969 142.109375 C 231.347656 142.109375 231.152344 142.042969 230.984375 141.902344 C 230.621094 141.59375 230.574219 141.042969 230.882812 140.671875 L 234.738281 136.074219 C 235.046875 135.699219 235.597656 135.65625 235.972656 135.960938 C 236.335938 136.28125 236.390625 136.832031 236.074219 137.195312 L 232.21875 141.792969 C 232.046875 142.007812 231.796875 142.109375 231.542969 142.109375 " fill-opacity="1" fill-rule="nonzero"/><path fill="#5170ff" d="M 238.128906 147.964844 C 237.894531 147.964844 237.652344 147.871094 237.484375 147.675781 C 237.15625 147.320312 237.1875 146.769531 237.539062 146.441406 L 242.003906 142.425781 C 242.359375 142.109375 242.910156 142.136719 243.238281 142.492188 C 243.566406 142.855469 243.527344 143.40625 243.171875 143.726562 L 238.707031 147.742188 C 238.550781 147.890625 238.335938 147.964844 238.128906 147.964844 " fill-opacity="1" fill-rule="nonzero"/><path fill="#5170ff" d="M 234.207031 143.726562 C 234.011719 143.726562 233.8125 143.660156 233.644531 143.519531 C 233.28125 143.210938 233.234375 142.660156 233.542969 142.285156 L 237.402344 137.691406 C 237.710938 137.328125 238.261719 137.269531 238.632812 137.589844 C 239 137.894531 239.042969 138.445312 238.738281 138.820312 L 234.878906 143.417969 C 234.710938 143.621094 234.457031 143.726562 234.207031 143.726562 " fill-opacity="1" fill-rule="nonzero"/><path fill="#5170ff" d="M 229.777344 139.261719 C 229.582031 139.261719 229.386719 139.183594 229.21875 139.054688 C 228.84375 138.746094 228.808594 138.1875 229.117188 137.820312 L 232.972656 133.226562 C 233.28125 132.851562 233.832031 132.804688 234.195312 133.113281 C 234.570312 133.421875 234.617188 133.984375 234.308594 134.347656 L 230.453125 138.941406 C 230.285156 139.148438 230.03125 139.261719 229.777344 139.261719 " fill-opacity="1" fill-rule="nonzero"/><path fill="#5170ff" d="M 241.632812 152.867188 C 241.390625 152.867188 241.15625 152.777344 240.976562 152.578125 C 240.652344 152.222656 240.679688 151.671875 241.042969 151.347656 L 245.507812 147.328125 C 245.863281 147.011719 246.414062 147.039062 246.742188 147.394531 C 247.058594 147.757812 247.03125 148.3125 246.675781 148.628906 L 242.210938 152.644531 C 242.042969 152.792969 241.835938 152.867188 241.632812 152.867188 " fill-opacity="1" fill-rule="nonzero"/><path fill="#5170ff" d="M 245.238281 157.59375 C 244.957031 157.59375 244.675781 157.457031 244.507812 157.210938 C 244.238281 156.8125 244.351562 156.269531 244.742188 156 L 249.722656 152.636719 C 250.121094 152.375 250.664062 152.476562 250.933594 152.878906 C 251.207031 153.28125 251.09375 153.820312 250.691406 154.09375 L 245.722656 157.445312 C 245.574219 157.546875 245.40625 157.59375 245.238281 157.59375 " fill-opacity="1" fill-rule="nonzero"/><path fill="#5170ff" d="M 248.851562 162.6875 C 248.527344 162.6875 248.21875 162.5 248.066406 162.191406 C 247.851562 161.761719 248.03125 161.238281 248.46875 161.023438 L 253.859375 158.390625 C 254.289062 158.183594 254.820312 158.359375 255.027344 158.789062 C 255.242188 159.230469 255.0625 159.753906 254.625 159.957031 L 249.234375 162.59375 C 249.113281 162.65625 248.984375 162.6875 248.851562 162.6875 " fill-opacity="1" fill-rule="nonzero"/><path fill="#5170ff" d="M 250.757812 168.207031 C 250.402344 168.207031 250.066406 167.980469 249.9375 167.628906 C 249.769531 167.179688 250.011719 166.675781 250.457031 166.507812 L 256.101562 164.460938 C 256.550781 164.292969 257.054688 164.527344 257.222656 164.984375 C 257.378906 165.433594 257.148438 165.9375 256.699219 166.105469 L 251.058594 168.148438 C 250.953125 168.1875 250.859375 168.207031 250.757812 168.207031 " fill-opacity="1" fill-rule="nonzero"/><path fill="#5170ff" d="M 252.71875 173.378906 C 252.347656 173.378906 252 173.148438 251.886719 172.773438 C 251.738281 172.316406 251.980469 171.820312 252.449219 171.671875 L 258.15625 169.820312 C 258.613281 169.671875 259.109375 169.925781 259.257812 170.382812 C 259.40625 170.839844 259.15625 171.335938 258.699219 171.484375 L 252.988281 173.335938 C 252.898438 173.363281 252.804688 173.378906 252.71875 173.378906 " fill-opacity="1" fill-rule="nonzero"/><path fill="#5170ff" d="M 253.933594 179.675781 C 253.523438 179.675781 253.148438 179.378906 253.074219 178.957031 C 252.988281 178.480469 253.308594 178.03125 253.785156 177.949219 L 259.695312 176.902344 C 260.171875 176.816406 260.628906 177.136719 260.707031 177.613281 C 260.789062 178.089844 260.480469 178.535156 260.003906 178.621094 L 254.09375 179.667969 C 254.035156 179.675781 253.988281 179.675781 253.933594 179.675781 " fill-opacity="1" fill-rule="nonzero"/><path fill="#5170ff" d="M 255.007812 185.683594 C 254.558594 185.683594 254.175781 185.347656 254.140625 184.886719 C 254.09375 184.410156 254.457031 183.980469 254.933594 183.945312 L 260.910156 183.421875 C 261.386719 183.367188 261.816406 183.730469 261.855469 184.214844 C 261.902344 184.691406 261.546875 185.121094 261.058594 185.160156 L 255.082031 185.683594 C 255.0625 185.683594 255.035156 185.683594 255.007812 185.683594 " fill-opacity="1" fill-rule="nonzero"/><path fill="#5170ff" d="M 255.046875 182.648438 C 254.625 182.648438 254.261719 182.347656 254.1875 181.925781 C 254.101562 181.449219 254.417969 180.992188 254.886719 180.910156 L 260.800781 179.871094 C 261.273438 179.789062 261.734375 180.105469 261.816406 180.582031 C 261.902344 181.050781 261.582031 181.507812 261.105469 181.589844 L 255.195312 182.636719 C 255.136719 182.648438 255.09375 182.648438 255.046875 182.648438 " fill-opacity="1" fill-rule="nonzero"/><path fill="#5170ff" d="M 178.582031 126.835938 C 178.152344 126.835938 177.769531 126.519531 177.714844 126.082031 L 176.875 120.140625 C 176.808594 119.664062 177.144531 119.222656 177.621094 119.160156 C 178.105469 119.09375 178.546875 119.421875 178.613281 119.898438 L 179.441406 125.847656 C 179.507812 126.324219 179.179688 126.761719 178.703125 126.828125 C 178.660156 126.835938 178.621094 126.835938 178.582031 126.835938 " fill-opacity="1" fill-rule="nonzero"/><path fill="#5170ff" d="M 184.402344 125.835938 C 183.953125 125.835938 183.570312 125.492188 183.535156 125.035156 L 183.011719 119.054688 C 182.964844 118.578125 183.320312 118.148438 183.804688 118.113281 C 184.289062 118.058594 184.710938 118.421875 184.75 118.90625 L 185.269531 124.886719 C 185.316406 125.359375 184.964844 125.789062 184.476562 125.828125 C 184.449219 125.835938 184.429688 125.835938 184.402344 125.835938 " fill-opacity="1" fill-rule="nonzero"/><path fill="#5170ff" d="M 166.710938 129.386719 C 166.328125 129.386719 165.984375 129.132812 165.871094 128.75 L 164.21875 122.988281 C 164.085938 122.523438 164.347656 122.035156 164.816406 121.90625 C 165.28125 121.773438 165.757812 122.035156 165.898438 122.503906 L 167.550781 128.277344 C 167.683594 128.734375 167.414062 129.21875 166.945312 129.347656 C 166.871094 129.378906 166.785156 129.386719 166.710938 129.386719 " fill-opacity="1" fill-rule="nonzero"/><path fill="#5170ff" d="M 172.625 127.695312 C 172.242188 127.695312 171.886719 127.445312 171.785156 127.0625 L 170.128906 121.289062 C 169.992188 120.820312 170.261719 120.34375 170.726562 120.207031 C 171.195312 120.074219 171.671875 120.34375 171.8125 120.804688 L 173.464844 126.574219 C 173.597656 127.042969 173.324219 127.527344 172.867188 127.660156 C 172.78125 127.675781 172.699219 127.695312 172.625 127.695312 " fill-opacity="1" fill-rule="nonzero"/><path fill="#5170ff" d="M 161.292969 131.394531 C 160.957031 131.394531 160.640625 131.199219 160.492188 130.871094 L 158.054688 125.390625 C 157.855469 124.949219 158.054688 124.425781 158.492188 124.242188 C 158.929688 124.042969 159.453125 124.242188 159.648438 124.679688 L 162.089844 130.164062 C 162.285156 130.601562 162.089844 131.113281 161.648438 131.3125 C 161.527344 131.367188 161.40625 131.394531 161.292969 131.394531 " fill-opacity="1" fill-rule="nonzero"/><path fill="#5170ff" d="M 150.90625 136.8125 C 150.617188 136.8125 150.328125 136.671875 150.167969 136.402344 L 146.984375 131.3125 C 146.730469 130.910156 146.855469 130.367188 147.265625 130.105469 C 147.667969 129.855469 148.21875 129.976562 148.46875 130.386719 L 151.644531 135.476562 C 151.90625 135.886719 151.777344 136.429688 151.375 136.683594 C 151.226562 136.773438 151.066406 136.8125 150.90625 136.8125 " fill-opacity="1" fill-rule="nonzero"/><path fill="#5170ff" d="M 156.316406 134.074219 C 156.027344 134.074219 155.738281 133.9375 155.578125 133.664062 L 152.394531 128.574219 C 152.140625 128.171875 152.261719 127.632812 152.671875 127.378906 C 153.082031 127.117188 153.625 127.238281 153.878906 127.648438 L 157.054688 132.738281 C 157.316406 133.152344 157.183594 133.691406 156.78125 133.945312 C 156.632812 134.039062 156.472656 134.074219 156.316406 134.074219 " fill-opacity="1" fill-rule="nonzero"/><path fill="#5170ff" d="M 143.492188 142.257812 C 143.238281 142.257812 142.996094 142.144531 142.828125 141.941406 L 138.96875 137.34375 C 138.652344 136.972656 138.699219 136.421875 139.074219 136.113281 C 139.445312 135.804688 139.996094 135.851562 140.304688 136.214844 L 144.164062 140.820312 C 144.472656 141.183594 144.425781 141.734375 144.050781 142.050781 C 143.894531 142.183594 143.6875 142.257812 143.492188 142.257812 " fill-opacity="1" fill-rule="nonzero"/><path fill="#5170ff" d="M 137.101562 148.375 C 136.898438 148.375 136.683594 148.300781 136.515625 148.152344 L 132.058594 144.136719 C 131.695312 143.816406 131.667969 143.265625 131.992188 142.902344 C 132.3125 142.546875 132.871094 142.519531 133.226562 142.835938 L 137.679688 146.855469 C 138.046875 147.179688 138.074219 147.730469 137.746094 148.085938 C 137.578125 148.28125 137.335938 148.375 137.101562 148.375 " fill-opacity="1" fill-rule="nonzero"/><path fill="#5170ff" d="M 141.257812 143.761719 C 141.054688 143.761719 140.839844 143.6875 140.679688 143.527344 L 136.214844 139.519531 C 135.859375 139.195312 135.832031 138.644531 136.148438 138.289062 C 136.476562 137.925781 137.027344 137.894531 137.382812 138.222656 L 141.847656 142.230469 C 142.203125 142.558594 142.238281 143.109375 141.914062 143.472656 C 141.734375 143.660156 141.5 143.761719 141.257812 143.761719 " fill-opacity="1" fill-rule="nonzero"/><path fill="#5170ff" d="M 146.179688 140.410156 C 145.910156 140.410156 145.640625 140.277344 145.460938 140.035156 L 142.023438 135.121094 C 141.746094 134.71875 141.847656 134.179688 142.238281 133.898438 C 142.632812 133.628906 143.183594 133.722656 143.464844 134.113281 L 146.902344 139.027344 C 147.179688 139.429688 147.078125 139.96875 146.6875 140.25 C 146.535156 140.351562 146.359375 140.410156 146.179688 140.410156 " fill-opacity="1" fill-rule="nonzero"/><path fill="#5170ff" d="M 130.003906 158.117188 C 129.835938 158.117188 129.667969 158.070312 129.519531 157.96875 L 124.539062 154.617188 C 124.148438 154.34375 124.035156 153.804688 124.304688 153.402344 C 124.578125 153 125.117188 152.898438 125.519531 153.167969 L 130.488281 156.519531 C 130.898438 156.792969 131.003906 157.332031 130.730469 157.734375 C 130.5625 157.988281 130.285156 158.117188 130.003906 158.117188 " fill-opacity="1" fill-rule="nonzero"/><path fill="#5170ff" d="M 133.429688 153.039062 C 133.261719 153.039062 133.09375 152.992188 132.945312 152.886719 L 127.96875 149.535156 C 127.574219 149.261719 127.464844 148.722656 127.734375 148.320312 C 128.003906 147.917969 128.546875 147.816406 128.949219 148.078125 L 133.925781 151.441406 C 134.328125 151.710938 134.429688 152.253906 134.160156 152.652344 C 133.992188 152.90625 133.710938 153.039062 133.429688 153.039062 " fill-opacity="1" fill-rule="nonzero"/><path fill="#5170ff" d="M 126.566406 163.003906 C 126.433594 163.003906 126.304688 162.976562 126.183594 162.917969 L 120.785156 160.285156 C 120.355469 160.078125 120.175781 159.546875 120.382812 159.117188 C 120.597656 158.679688 121.121094 158.5 121.550781 158.714844 L 126.949219 161.339844 C 127.378906 161.554688 127.566406 162.078125 127.351562 162.519531 C 127.203125 162.824219 126.894531 163.003906 126.566406 163.003906 " fill-opacity="1" fill-rule="nonzero"/><path fill="#5170ff" d="M 124.503906 168.703125 C 124.371094 168.703125 124.242188 168.671875 124.117188 168.609375 L 118.730469 165.984375 C 118.289062 165.769531 118.113281 165.246094 118.328125 164.816406 C 118.535156 164.375 119.066406 164.199219 119.496094 164.414062 L 124.886719 167.039062 C 125.324219 167.253906 125.5 167.777344 125.285156 168.207031 C 125.136719 168.515625 124.828125 168.703125 124.503906 168.703125 " fill-opacity="1" fill-rule="nonzero"/><path fill="#5170ff" d="M 122.324219 173.902344 C 122.242188 173.902344 122.148438 173.894531 122.054688 173.867188 L 116.347656 172.007812 C 115.890625 171.859375 115.636719 171.363281 115.789062 170.90625 C 115.9375 170.449219 116.433594 170.195312 116.890625 170.34375 L 122.597656 172.203125 C 123.054688 172.351562 123.304688 172.839844 123.15625 173.296875 C 123.035156 173.671875 122.699219 173.902344 122.324219 173.902344 " fill-opacity="1" fill-rule="nonzero"/><path fill="#5170ff" d="M 121.429688 180.144531 C 121.34375 180.144531 121.25 180.132812 121.15625 180.105469 L 115.449219 178.246094 C 114.992188 178.097656 114.742188 177.601562 114.890625 177.144531 C 115.039062 176.6875 115.535156 176.433594 115.992188 176.585938 L 121.699219 178.441406 C 122.15625 178.59375 122.410156 179.085938 122.261719 179.546875 C 122.140625 179.910156 121.800781 180.144531 121.429688 180.144531 " fill-opacity="1" fill-rule="nonzero"/><path fill="#5170ff" d="M 120.027344 186.234375 C 119.945312 186.234375 119.851562 186.222656 119.757812 186.195312 L 114.050781 184.335938 C 113.59375 184.1875 113.339844 183.703125 113.488281 183.234375 C 113.640625 182.777344 114.132812 182.523438 114.589844 182.675781 L 120.296875 184.535156 C 120.765625 184.683594 121.007812 185.179688 120.859375 185.636719 C 120.746094 186 120.402344 186.234375 120.027344 186.234375 " fill-opacity="1" fill-rule="nonzero"/><path fill="#5170ff" d="M 120.128906 182.871094 C 120.082031 182.871094 120.027344 182.863281 119.980469 182.851562 L 114.070312 181.816406 C 113.59375 181.730469 113.273438 181.273438 113.359375 180.796875 C 113.441406 180.320312 113.890625 180.003906 114.375 180.085938 L 120.289062 181.132812 C 120.757812 181.21875 121.074219 181.664062 120.988281 182.140625 C 120.914062 182.570312 120.550781 182.871094 120.128906 182.871094 " fill-opacity="1" fill-rule="nonzero"/><path fill="#5170ff" d="M 192.988281 131.878906 C 192.957031 131.878906 192.941406 131.878906 192.910156 131.878906 C 192.425781 131.835938 192.070312 131.414062 192.117188 130.9375 L 193.117188 119.476562 C 193.15625 119 193.574219 118.636719 194.0625 118.683594 C 194.546875 118.71875 194.902344 119.148438 194.863281 119.625 L 193.855469 131.085938 C 193.816406 131.542969 193.433594 131.878906 192.988281 131.878906 " fill-opacity="1" fill-rule="nonzero"/><path fill="#5170ff" d="M 198.441406 132.589844 C 198.386719 132.589844 198.339844 132.589844 198.28125 132.582031 C 197.804688 132.488281 197.488281 132.039062 197.574219 131.5625 L 199.570312 120.242188 C 199.65625 119.765625 200.105469 119.449219 200.582031 119.53125 C 201.058594 119.617188 201.375 120.066406 201.289062 120.542969 L 199.292969 131.871094 C 199.226562 132.292969 198.851562 132.589844 198.441406 132.589844 " fill-opacity="1" fill-rule="nonzero"/><path fill="#5170ff" d="M 203.804688 133.769531 C 203.726562 133.769531 203.652344 133.757812 203.578125 133.738281 C 203.113281 133.617188 202.832031 133.132812 202.960938 132.664062 L 205.933594 121.558594 C 206.0625 121.101562 206.539062 120.820312 207.007812 120.941406 C 207.472656 121.074219 207.746094 121.550781 207.625 122.015625 L 204.644531 133.125 C 204.539062 133.515625 204.1875 133.769531 203.804688 133.769531 " fill-opacity="1" fill-rule="nonzero"/><path fill="#5170ff" d="M 209.050781 135.410156 C 208.949219 135.410156 208.847656 135.394531 208.753906 135.363281 C 208.296875 135.195312 208.0625 134.691406 208.222656 134.242188 L 212.164062 123.4375 C 212.320312 122.980469 212.824219 122.746094 213.273438 122.914062 C 213.730469 123.074219 213.964844 123.578125 213.808594 124.035156 L 209.863281 134.839844 C 209.742188 135.195312 209.40625 135.410156 209.050781 135.410156 " fill-opacity="1" fill-rule="nonzero"/><path fill="#5170ff" d="M 214.132812 137.503906 C 214.003906 137.503906 213.882812 137.484375 213.761719 137.429688 C 213.320312 137.222656 213.132812 136.699219 213.339844 136.261719 L 218.195312 125.847656 C 218.402344 125.40625 218.925781 125.210938 219.355469 125.417969 C 219.792969 125.621094 219.988281 126.144531 219.785156 126.585938 L 214.917969 137 C 214.769531 137.316406 214.460938 137.503906 214.132812 137.503906 " fill-opacity="1" fill-rule="nonzero"/><path fill="#5170ff" d="M 219.007812 140.035156 C 218.859375 140.035156 218.710938 139.996094 218.570312 139.921875 C 218.160156 139.679688 218.011719 139.148438 218.253906 138.726562 L 223.996094 128.769531 C 224.238281 128.351562 224.773438 128.210938 225.191406 128.445312 C 225.613281 128.6875 225.753906 129.21875 225.519531 129.640625 L 219.765625 139.597656 C 219.605469 139.875 219.308594 140.035156 219.007812 140.035156 " fill-opacity="1" fill-rule="nonzero"/><path fill="#5170ff" d="M 223.652344 142.976562 C 223.472656 142.976562 223.296875 142.929688 223.148438 142.820312 C 222.753906 142.546875 222.660156 142.007812 222.933594 141.605469 L 229.527344 132.1875 C 229.808594 131.789062 230.347656 131.695312 230.75 131.972656 C 231.144531 132.246094 231.234375 132.796875 230.957031 133.1875 L 224.363281 142.613281 C 224.195312 142.855469 223.921875 142.976562 223.652344 142.976562 " fill-opacity="1" fill-rule="nonzero"/><path fill="#5170ff" d="M 228.011719 146.320312 C 227.816406 146.320312 227.621094 146.257812 227.453125 146.117188 C 227.078125 145.808594 227.03125 145.257812 227.339844 144.882812 L 234.738281 136.074219 C 235.046875 135.699219 235.597656 135.65625 235.972656 135.960938 C 236.335938 136.28125 236.390625 136.832031 236.074219 137.195312 L 228.6875 146.003906 C 228.519531 146.210938 228.265625 146.320312 228.011719 146.320312 " fill-opacity="1" fill-rule="nonzero"/><path fill="#5170ff" d="M 232.078125 150.03125 C 231.851562 150.03125 231.628906 149.9375 231.460938 149.769531 C 231.113281 149.433594 231.113281 148.871094 231.460938 148.535156 L 239.585938 140.398438 C 239.921875 140.0625 240.484375 140.0625 240.820312 140.398438 C 241.164062 140.746094 241.164062 141.296875 240.820312 141.640625 L 232.691406 149.769531 C 232.523438 149.9375 232.300781 150.03125 232.078125 150.03125 " fill-opacity="1" fill-rule="nonzero"/><path fill="#5170ff" d="M 235.792969 154.074219 C 235.542969 154.074219 235.300781 153.960938 235.121094 153.757812 C 234.8125 153.390625 234.859375 152.832031 235.234375 152.523438 L 244.042969 145.136719 C 244.40625 144.828125 244.957031 144.875 245.273438 145.246094 C 245.582031 145.613281 245.535156 146.164062 245.164062 146.480469 L 236.355469 153.867188 C 236.195312 154 235.992188 154.074219 235.792969 154.074219 " fill-opacity="1" fill-rule="nonzero"/><path fill="#5170ff" d="M 239.148438 158.425781 C 238.875 158.425781 238.605469 158.296875 238.429688 158.054688 C 238.15625 157.660156 238.25 157.109375 238.652344 156.828125 L 248.066406 150.246094 C 248.460938 149.964844 249 150.058594 249.28125 150.449219 C 249.5625 150.851562 249.460938 151.394531 249.066406 151.671875 L 239.652344 158.269531 C 239.492188 158.371094 239.324219 158.425781 239.148438 158.425781 " fill-opacity="1" fill-rule="nonzero"/><path fill="#5170ff" d="M 242.109375 163.058594 C 241.808594 163.058594 241.519531 162.902344 241.351562 162.621094 C 241.109375 162.199219 241.25 161.667969 241.667969 161.425781 L 251.625 155.671875 C 252.046875 155.429688 252.578125 155.578125 252.820312 156 C 253.066406 156.410156 252.925781 156.949219 252.503906 157.183594 L 242.546875 162.9375 C 242.40625 163.011719 242.257812 163.058594 242.109375 163.058594 " fill-opacity="1" fill-rule="nonzero"/><path fill="#5170ff" d="M 244.660156 167.925781 C 244.332031 167.925781 244.015625 167.738281 243.863281 167.421875 C 243.660156 166.984375 243.847656 166.460938 244.285156 166.253906 L 254.707031 161.398438 C 255.136719 161.191406 255.671875 161.386719 255.867188 161.816406 C 256.074219 162.257812 255.886719 162.78125 255.445312 162.984375 L 245.023438 167.84375 C 244.910156 167.898438 244.78125 167.925781 244.660156 167.925781 " fill-opacity="1" fill-rule="nonzero"/><path fill="#5170ff" d="M 246.769531 172.996094 C 246.414062 172.996094 246.078125 172.78125 245.949219 172.417969 C 245.78125 171.96875 246.011719 171.464844 246.46875 171.308594 L 257.277344 167.375 C 257.726562 167.207031 258.230469 167.441406 258.398438 167.886719 C 258.558594 168.347656 258.324219 168.851562 257.867188 169.007812 L 247.066406 172.949219 C 246.964844 172.980469 246.871094 172.996094 246.769531 172.996094 " fill-opacity="1" fill-rule="nonzero"/><path fill="#5170ff" d="M 248.433594 178.238281 C 248.050781 178.238281 247.695312 177.976562 247.589844 177.59375 C 247.460938 177.125 247.742188 176.640625 248.207031 176.519531 L 259.3125 173.539062 C 259.769531 173.417969 260.257812 173.699219 260.378906 174.15625 C 260.507812 174.625 260.230469 175.109375 259.761719 175.230469 L 248.65625 178.210938 C 248.582031 178.230469 248.507812 178.238281 248.433594 178.238281 " fill-opacity="1" fill-rule="nonzero"/><path fill="#5170ff" d="M 249.628906 183.597656 C 249.207031 183.597656 248.84375 183.300781 248.769531 182.878906 C 248.683594 182.402344 249 181.945312 249.476562 181.863281 L 260.800781 179.871094 C 261.273438 179.789062 261.734375 180.105469 261.816406 180.582031 C 261.902344 181.050781 261.582031 181.507812 261.105469 181.589844 L 249.777344 183.589844 C 249.730469 183.597656 249.683594 183.597656 249.628906 183.597656 " fill-opacity="1" fill-rule="nonzero"/><path fill="#5170ff" d="M 250.355469 189.042969 C 249.90625 189.042969 249.523438 188.707031 249.488281 188.25 C 249.441406 187.765625 249.796875 187.34375 250.28125 187.308594 L 261.734375 186.296875 C 262.21875 186.253906 262.640625 186.617188 262.6875 187.09375 C 262.722656 187.578125 262.367188 188 261.882812 188.046875 L 250.429688 189.042969 C 250.402344 189.042969 250.382812 189.042969 250.355469 189.042969 " fill-opacity="1" fill-rule="nonzero"/><path fill="#5170ff" d="M 182.003906 131.898438 C 181.554688 131.898438 181.171875 131.5625 181.132812 131.105469 L 180.132812 119.652344 C 180.085938 119.167969 180.441406 118.75 180.929688 118.703125 C 181.414062 118.65625 181.835938 119.019531 181.871094 119.496094 L 182.878906 130.957031 C 182.917969 131.433594 182.5625 131.863281 182.078125 131.898438 C 182.058594 131.898438 182.03125 131.898438 182.003906 131.898438 " fill-opacity="1" fill-rule="nonzero"/><path fill="#5170ff" d="M 176.558594 132.628906 C 176.136719 132.628906 175.773438 132.328125 175.699219 131.910156 L 173.699219 120.589844 C 173.613281 120.113281 173.933594 119.652344 174.410156 119.570312 C 174.882812 119.484375 175.332031 119.804688 175.425781 120.28125 L 177.417969 131.601562 C 177.5 132.078125 177.183594 132.535156 176.707031 132.617188 C 176.660156 132.628906 176.601562 132.628906 176.558594 132.628906 " fill-opacity="1" fill-rule="nonzero"/><path fill="#5170ff" d="M 171.195312 133.824219 C 170.804688 133.824219 170.449219 133.570312 170.34375 133.179688 L 167.375 122.074219 C 167.246094 121.605469 167.523438 121.128906 167.992188 121 C 168.457031 120.878906 168.933594 121.15625 169.054688 121.625 L 172.035156 132.730469 C 172.167969 133.199219 171.886719 133.675781 171.417969 133.796875 C 171.34375 133.8125 171.269531 133.824219 171.195312 133.824219 " fill-opacity="1" fill-rule="nonzero"/><path fill="#5170ff" d="M 165.957031 135.484375 C 165.601562 135.484375 165.265625 135.269531 165.132812 134.917969 L 161.199219 124.109375 C 161.03125 123.660156 161.265625 123.15625 161.722656 122.988281 C 162.171875 122.820312 162.675781 123.054688 162.84375 123.511719 L 166.777344 134.320312 C 166.945312 134.765625 166.703125 135.269531 166.253906 135.441406 C 166.152344 135.476562 166.046875 135.484375 165.957031 135.484375 " fill-opacity="1" fill-rule="nonzero"/><path fill="#5170ff" d="M 160.882812 137.605469 C 160.546875 137.605469 160.238281 137.417969 160.089844 137.101562 L 155.230469 126.679688 C 155.027344 126.238281 155.214844 125.714844 155.652344 125.519531 C 156.089844 125.316406 156.613281 125.5 156.8125 125.941406 L 161.675781 136.355469 C 161.875 136.792969 161.6875 137.316406 161.246094 137.523438 C 161.125 137.578125 161.003906 137.605469 160.882812 137.605469 " fill-opacity="1" fill-rule="nonzero"/><path fill="#5170ff" d="M 156.007812 140.148438 C 155.707031 140.148438 155.417969 139.988281 155.25 139.707031 L 149.507812 129.75 C 149.265625 129.339844 149.402344 128.796875 149.824219 128.566406 C 150.246094 128.320312 150.777344 128.460938 151.019531 128.882812 L 156.765625 138.839844 C 157.007812 139.261719 156.867188 139.792969 156.445312 140.035156 C 156.304688 140.109375 156.15625 140.148438 156.007812 140.148438 " fill-opacity="1" fill-rule="nonzero"/><path fill="#5170ff" d="M 151.382812 143.109375 C 151.105469 143.109375 150.832031 142.976562 150.664062 142.734375 L 144.070312 133.320312 C 143.789062 132.925781 143.894531 132.375 144.285156 132.105469 C 144.675781 131.824219 145.230469 131.917969 145.5 132.320312 L 152.09375 141.734375 C 152.375 142.128906 152.28125 142.679688 151.878906 142.949219 C 151.730469 143.0625 151.550781 143.109375 151.382812 143.109375 " fill-opacity="1" fill-rule="nonzero"/><path fill="#5170ff" d="M 147.03125 146.460938 C 146.777344 146.460938 146.527344 146.359375 146.359375 146.152344 L 138.96875 137.34375 C 138.652344 136.972656 138.699219 136.421875 139.074219 136.113281 C 139.445312 135.804688 139.996094 135.851562 140.304688 136.214844 L 147.695312 145.023438 C 148.003906 145.398438 147.957031 145.949219 147.582031 146.257812 C 147.421875 146.394531 147.226562 146.460938 147.03125 146.460938 " fill-opacity="1" fill-rule="nonzero"/><path fill="#5170ff" d="M 142.976562 150.1875 C 142.753906 150.1875 142.539062 150.09375 142.359375 149.925781 L 134.234375 141.800781 C 133.890625 141.453125 133.890625 140.902344 134.234375 140.558594 C 134.570312 140.222656 135.121094 140.222656 135.46875 140.558594 L 143.601562 148.695312 C 143.941406 149.03125 143.941406 149.589844 143.601562 149.925781 C 143.425781 150.09375 143.203125 150.1875 142.976562 150.1875 " fill-opacity="1" fill-rule="nonzero"/><path fill="#5170ff" d="M 139.277344 154.242188 C 139.074219 154.242188 138.878906 154.175781 138.707031 154.035156 L 129.902344 146.648438 C 129.535156 146.339844 129.488281 145.789062 129.796875 145.414062 C 130.105469 145.042969 130.65625 144.996094 131.03125 145.3125 L 139.839844 152.699219 C 140.203125 153.007812 140.25 153.558594 139.941406 153.933594 C 139.773438 154.140625 139.523438 154.242188 139.277344 154.242188 " fill-opacity="1" fill-rule="nonzero"/><path fill="#5170ff" d="M 135.933594 158.613281 C 135.757812 158.613281 135.589844 158.558594 135.429688 158.453125 L 126.015625 151.859375 C 125.621094 151.578125 125.53125 151.027344 125.800781 150.636719 C 126.082031 150.246094 126.621094 150.152344 127.023438 150.421875 L 136.4375 157.015625 C 136.832031 157.296875 136.925781 157.839844 136.652344 158.238281 C 136.484375 158.484375 136.214844 158.613281 135.933594 158.613281 " fill-opacity="1" fill-rule="nonzero"/><path fill="#5170ff" d="M 132.992188 163.246094 C 132.84375 163.246094 132.695312 163.207031 132.554688 163.132812 L 122.597656 157.378906 C 122.175781 157.136719 122.035156 156.605469 122.277344 156.195312 C 122.523438 155.773438 123.054688 155.625 123.472656 155.867188 L 133.429688 161.621094 C 133.851562 161.863281 133.992188 162.394531 133.75 162.808594 C 133.589844 163.097656 133.292969 163.246094 132.992188 163.246094 " fill-opacity="1" fill-rule="nonzero"/><path fill="#5170ff" d="M 130.460938 168.132812 C 130.339844 168.132812 130.210938 168.101562 130.085938 168.046875 L 119.671875 163.191406 C 119.234375 162.984375 119.046875 162.460938 119.253906 162.023438 C 119.449219 161.59375 119.972656 161.398438 120.410156 161.601562 L 130.835938 166.460938 C 131.265625 166.664062 131.460938 167.1875 131.253906 167.628906 C 131.105469 167.945312 130.789062 168.132812 130.460938 168.132812 " fill-opacity="1" fill-rule="nonzero"/><path fill="#5170ff" d="M 128.367188 173.210938 C 128.265625 173.210938 128.171875 173.195312 128.070312 173.15625 L 117.261719 169.222656 C 116.816406 169.066406 116.582031 168.5625 116.738281 168.101562 C 116.90625 167.644531 117.414062 167.414062 117.859375 167.582031 L 128.667969 171.511719 C 129.125 171.679688 129.351562 172.183594 129.191406 172.632812 C 129.058594 172.988281 128.722656 173.210938 128.367188 173.210938 " fill-opacity="1" fill-rule="nonzero"/><path fill="#5170ff" d="M 126.726562 178.453125 C 126.648438 178.453125 126.574219 178.441406 126.5 178.425781 L 115.394531 175.453125 C 114.929688 175.324219 114.648438 174.847656 114.777344 174.378906 C 114.898438 173.914062 115.375 173.632812 115.84375 173.765625 L 126.949219 176.734375 C 127.417969 176.863281 127.695312 177.339844 127.574219 177.808594 C 127.464844 178.199219 127.109375 178.453125 126.726562 178.453125 " fill-opacity="1" fill-rule="nonzero"/><path fill="#5170ff" d="M 125.546875 183.824219 C 125.5 183.824219 125.445312 183.824219 125.398438 183.8125 L 114.070312 181.816406 C 113.59375 181.730469 113.273438 181.273438 113.359375 180.796875 C 113.441406 180.320312 113.890625 180.003906 114.375 180.085938 L 125.699219 182.085938 C 126.175781 182.171875 126.492188 182.628906 126.40625 183.105469 C 126.332031 183.523438 125.96875 183.824219 125.546875 183.824219 " fill-opacity="1" fill-rule="nonzero"/><path fill="#5170ff" d="M 124.839844 189.269531 C 124.808594 189.269531 124.792969 189.269531 124.761719 189.269531 L 113.300781 188.269531 C 112.828125 188.222656 112.472656 187.800781 112.519531 187.316406 C 112.554688 186.839844 112.976562 186.476562 113.460938 186.523438 L 124.914062 187.53125 C 125.398438 187.570312 125.753906 188 125.707031 188.476562 C 125.667969 188.933594 125.285156 189.269531 124.839844 189.269531 " fill-opacity="1" fill-rule="nonzero"/><g fill="#000000" fill-opacity="1"><g transform="translate(97.652342, 226.577373)"><g><path d="M 2.359375 0 L 2.359375 -19.59375 L 6.796875 -19.59375 L 6.796875 0 Z M 2.359375 0 "/></g></g></g><g fill="#000000" fill-opacity="1"><g transform="translate(106.807088, 226.577373)"><g><path d="M 2.359375 0 L 2.359375 -19.59375 L 6.125 -19.59375 L 14.78125 -7.671875 L 14.78125 -19.59375 L 19.203125 -19.59375 L 19.203125 0 L 15.421875 0 L 6.78125 -12.015625 L 6.78125 0 Z M 2.359375 0 "/></g></g></g><g fill="#000000" fill-opacity="1"><g transform="translate(128.364151, 226.577373)"><g><path d="M 11.34375 0.390625 C 9.363281 0.390625 7.609375 -0.0390625 6.078125 -0.90625 C 4.546875 -1.78125 3.347656 -2.976562 2.484375 -4.5 C 1.628906 -6.03125 1.203125 -7.796875 1.203125 -9.796875 C 1.203125 -11.796875 1.628906 -13.5625 2.484375 -15.09375 C 3.347656 -16.625 4.539062 -17.820312 6.0625 -18.6875 C 7.582031 -19.550781 9.332031 -19.984375 11.3125 -19.984375 C 12.96875 -19.984375 14.488281 -19.664062 15.875 -19.03125 C 17.257812 -18.40625 18.421875 -17.507812 19.359375 -16.34375 C 20.304688 -15.1875 20.96875 -13.828125 21.34375 -12.265625 L 16.75 -12.265625 C 16.375 -13.347656 15.707031 -14.203125 14.75 -14.828125 C 13.800781 -15.453125 12.703125 -15.765625 11.453125 -15.765625 C 10.347656 -15.765625 9.363281 -15.507812 8.5 -15 C 7.632812 -14.5 6.957031 -13.800781 6.46875 -12.90625 C 5.976562 -12.007812 5.734375 -10.972656 5.734375 -9.796875 C 5.734375 -8.617188 5.976562 -7.582031 6.46875 -6.6875 C 6.957031 -5.789062 7.628906 -5.09375 8.484375 -4.59375 C 9.335938 -4.09375 10.316406 -3.84375 11.421875 -3.84375 C 12.710938 -3.84375 13.84375 -4.171875 14.8125 -4.828125 C 15.78125 -5.492188 16.472656 -6.382812 16.890625 -7.5 L 21.46875 -7.5 C 21.15625 -5.914062 20.519531 -4.53125 19.5625 -3.34375 C 18.613281 -2.15625 17.4375 -1.234375 16.03125 -0.578125 C 14.625 0.0664062 13.0625 0.390625 11.34375 0.390625 Z M 11.34375 0.390625 "/></g></g></g><g fill="#000000" fill-opacity="1"><g transform="translate(150.957064, 226.577373)"><g><path d="M 14.46875 0 L 14.46875 -7.890625 L 6.796875 -7.890625 L 6.796875 0 L 2.359375 0 L 2.359375 -19.59375 L 6.796875 -19.59375 L 6.796875 -12.0625 L 14.46875 -12.0625 L 14.46875 -19.59375 L 18.921875 -19.59375 L 18.921875 0 Z M 14.46875 0 "/></g></g></g><g fill="#000000" fill-opacity="1"><g transform="translate(172.234158, 226.577373)"><g><path d="M 1.84375 -5.453125 L 1.84375 -8.65625 L 10.953125 -8.65625 L 10.953125 -5.453125 Z M 1.84375 -5.453125 "/></g></g></g><g fill="#000000" fill-opacity="1"><g transform="translate(185.056404, 226.577373)"><g><path d="M 2.359375 0 L 2.359375 -19.59375 L 6.796875 -19.59375 L 6.796875 0 Z M 2.359375 0 "/></g></g></g><g fill="#000000" fill-opacity="1"><g transform="translate(194.21115, 226.577373)"><g><path d="M 2.359375 0 L 2.359375 -19.59375 L 6.125 -19.59375 L 14.78125 -7.671875 L 14.78125 -19.59375 L 19.203125 -19.59375 L 19.203125 0 L 15.421875 0 L 6.78125 -12.015625 L 6.78125 0 Z M 2.359375 0 "/></g></g></g><g fill="#000000" fill-opacity="1"><g transform="translate(215.768213, 226.577373)"><g><path d="M 1.84375 -5.453125 L 1.84375 -8.65625 L 10.953125 -8.65625 L 10.953125 -5.453125 Z M 1.84375 -5.453125 "/></g></g></g><g fill="#000000" fill-opacity="1"><g transform="translate(228.590459, 226.577373)"><g><path d="M 11.34375 0.390625 C 9.363281 0.390625 7.609375 -0.0390625 6.078125 -0.90625 C 4.546875 -1.78125 3.347656 -2.976562 2.484375 -4.5 C 1.628906 -6.03125 1.203125 -7.796875 1.203125 -9.796875 C 1.203125 -11.796875 1.628906 -13.5625 2.484375 -15.09375 C 3.347656 -16.625 4.539062 -17.820312 6.0625 -18.6875 C 7.582031 -19.550781 9.332031 -19.984375 11.3125 -19.984375 C 12.96875 -19.984375 14.488281 -19.664062 15.875 -19.03125 C 17.257812 -18.40625 18.421875 -17.507812 19.359375 -16.34375 C 20.304688 -15.1875 20.96875 -13.828125 21.34375 -12.265625 L 16.75 -12.265625 C 16.375 -13.347656 15.707031 -14.203125 14.75 -14.828125 C 13.800781 -15.453125 12.703125 -15.765625 11.453125 -15.765625 C 10.347656 -15.765625 9.363281 -15.507812 8.5 -15 C 7.632812 -14.5 6.957031 -13.800781 6.46875 -12.90625 C 5.976562 -12.007812 5.734375 -10.972656 5.734375 -9.796875 C 5.734375 -8.617188 5.976562 -7.582031 6.46875 -6.6875 C 6.957031 -5.789062 7.628906 -5.09375 8.484375 -4.59375 C 9.335938 -4.09375 10.316406 -3.84375 11.421875 -3.84375 C 12.710938 -3.84375 13.84375 -4.171875 14.8125 -4.828125 C 15.78125 -5.492188 16.472656 -6.382812 16.890625 -7.5 L 21.46875 -7.5 C 21.15625 -5.914062 20.519531 -4.53125 19.5625 -3.34375 C 18.613281 -2.15625 17.4375 -1.234375 16.03125 -0.578125 C 14.625 0.0664062 13.0625 0.390625 11.34375 0.390625 Z M 11.34375 0.390625 "/></g></g></g><g fill="#000000" fill-opacity="1"><g transform="translate(251.183372, 226.577373)"><g><path d="M 2.359375 0 L 2.359375 -19.59375 L 6.125 -19.59375 L 13.109375 -9.4375 L 20.046875 -19.59375 L 23.796875 -19.59375 L 23.796875 0 L 19.375 0 L 19.375 -11.78125 L 14.609375 -4.84375 L 11.53125 -4.84375 L 6.78125 -11.8125 L 6.78125 0 Z M 2.359375 0 "/></g></g></g><g fill="#000000" fill-opacity="1"><g transform="translate(136.004684, 254.227409)"><g><path d="M 5.15625 0.203125 C 4.132812 0.203125 3.304688 0.03125 2.671875 -0.3125 C 2.035156 -0.65625 1.570312 -1.132812 1.28125 -1.75 C 0.988281 -2.363281 0.84375 -3.070312 0.84375 -3.875 L 0.84375 -10.6875 L 2.875 -10.6875 L 2.875 -3.875 C 2.875 -3.4375 2.941406 -3.046875 3.078125 -2.703125 C 3.222656 -2.359375 3.460938 -2.085938 3.796875 -1.890625 C 4.128906 -1.703125 4.582031 -1.609375 5.15625 -1.609375 C 5.726562 -1.609375 6.179688 -1.703125 6.515625 -1.890625 C 6.847656 -2.085938 7.082031 -2.359375 7.21875 -2.703125 C 7.363281 -3.046875 7.4375 -3.4375 7.4375 -3.875 L 7.4375 -10.6875 L 9.46875 -10.6875 L 9.46875 -3.875 C 9.46875 -3.070312 9.316406 -2.363281 9.015625 -1.75 C 8.722656 -1.132812 8.257812 -0.65625 7.625 -0.3125 C 6.988281 0.03125 6.164062 0.203125 5.15625 0.203125 Z M 5.15625 0.203125 "/></g></g></g><g fill="#000000" fill-opacity="1"><g transform="translate(147.716933, 254.227409)"><g><path d="M 2.96875 0 L 0.953125 0 L 0.953125 -10.6875 L 4.28125 -10.6875 L 6.5 -2.4375 L 8.6875 -10.6875 L 12.046875 -10.6875 L 12.046875 0 L 10.03125 0 L 10.03125 -9.171875 L 7.484375 0 L 5.515625 0 L 2.96875 -9.109375 Z M 2.96875 0 "/></g></g></g><g fill="#000000" fill-opacity="1"><g transform="translate(162.115683, 254.227409)"><g><path d="M 7.265625 -4.640625 L 9.1875 0 L 7.046875 0 L 5.34375 -4.265625 L 2.96875 -4.265625 L 2.96875 0 L 0.953125 0 L 0.953125 -10.6875 L 5.5625 -10.6875 C 6.226562 -10.6875 6.816406 -10.578125 7.328125 -10.359375 C 7.835938 -10.140625 8.234375 -9.796875 8.515625 -9.328125 C 8.804688 -8.867188 8.953125 -8.269531 8.953125 -7.53125 C 8.953125 -6.832031 8.800781 -6.234375 8.5 -5.734375 C 8.195312 -5.242188 7.785156 -4.878906 7.265625 -4.640625 Z M 5.28125 -8.875 L 2.96875 -8.875 L 2.96875 -6.03125 L 5.28125 -6.03125 C 5.820312 -6.03125 6.234375 -6.148438 6.515625 -6.390625 C 6.796875 -6.640625 6.9375 -7 6.9375 -7.46875 C 6.9375 -7.914062 6.789062 -8.257812 6.5 -8.5 C 6.21875 -8.75 5.8125 -8.875 5.28125 -8.875 Z M 5.28125 -8.875 "/></g></g></g><g fill="#000000" fill-opacity="1"><g transform="translate(173.156301, 254.227409)"><g><path d="M 8.078125 0 L 0.953125 0 L 0.953125 -10.6875 L 8.078125 -10.6875 L 8.078125 -8.875 L 2.96875 -8.875 L 2.96875 -6.25 L 7.546875 -6.25 L 7.546875 -4.453125 L 2.96875 -4.453125 L 2.96875 -1.8125 L 8.078125 -1.8125 Z M 8.078125 0 "/></g></g></g><g fill="#000000" fill-opacity="1"><g transform="translate(183.245458, 254.227409)"><g><path d="M 5.71875 0.203125 C 4.832031 0.203125 4.066406 0.0507812 3.421875 -0.25 C 2.773438 -0.550781 2.238281 -0.957031 1.8125 -1.46875 C 1.382812 -1.976562 1.066406 -2.566406 0.859375 -3.234375 C 0.648438 -3.898438 0.546875 -4.601562 0.546875 -5.34375 C 0.546875 -6.082031 0.648438 -6.785156 0.859375 -7.453125 C 1.066406 -8.117188 1.382812 -8.707031 1.8125 -9.21875 C 2.238281 -9.738281 2.773438 -10.144531 3.421875 -10.4375 C 4.066406 -10.726562 4.832031 -10.875 5.71875 -10.875 C 6.601562 -10.875 7.363281 -10.722656 8 -10.421875 C 8.644531 -10.128906 9.160156 -9.71875 9.546875 -9.1875 C 9.929688 -8.65625 10.171875 -8.039062 10.265625 -7.34375 L 8.0625 -7.34375 C 7.96875 -7.90625 7.703125 -8.332031 7.265625 -8.625 C 6.835938 -8.925781 6.304688 -9.078125 5.671875 -9.078125 C 5.015625 -9.078125 4.460938 -8.921875 4.015625 -8.609375 C 3.566406 -8.296875 3.222656 -7.859375 2.984375 -7.296875 C 2.753906 -6.734375 2.640625 -6.082031 2.640625 -5.34375 C 2.640625 -4.601562 2.753906 -3.953125 2.984375 -3.390625 C 3.222656 -2.828125 3.566406 -2.390625 4.015625 -2.078125 C 4.460938 -1.765625 5.015625 -1.609375 5.671875 -1.609375 C 6.304688 -1.609375 6.835938 -1.757812 7.265625 -2.0625 C 7.691406 -2.375 7.957031 -2.84375 8.0625 -3.46875 L 10.265625 -3.46875 C 10.171875 -2.726562 9.929688 -2.082031 9.546875 -1.53125 C 9.160156 -0.988281 8.644531 -0.5625 8 -0.25 C 7.363281 0.0507812 6.601562 0.203125 5.71875 0.203125 Z M 5.71875 0.203125 "/></g></g></g><g fill="#000000" fill-opacity="1"><g transform="translate(195.377464, 254.227409)"><g><path d="M 2.96875 0 L 0.953125 0 L 0.953125 -10.6875 L 2.96875 -10.6875 L 2.96875 -6.265625 L 7.546875 -6.265625 L 7.546875 -10.6875 L 9.5625 -10.6875 L 9.5625 0 L 7.546875 0 L 7.546875 -4.453125 L 2.96875 -4.453125 Z M 2.96875 0 "/></g></g></g><g fill="#000000" fill-opacity="1"><g transform="translate(207.299598, 254.227409)"><g><path d="M 2.96875 0 L 0.953125 0 L 0.953125 -10.6875 L 3.21875 -10.6875 L 7.609375 -3.03125 L 7.609375 -10.6875 L 9.625 -10.6875 L 9.625 0 L 7.34375 0 L 2.96875 -7.65625 Z M 2.96875 0 "/></g></g></g><g fill="#000000" fill-opacity="1"><g transform="translate(219.263697, 254.227409)"><g><path d="M 8.078125 0 L 0.953125 0 L 0.953125 -10.6875 L 8.078125 -10.6875 L 8.078125 -8.875 L 2.96875 -8.875 L 2.96875 -6.25 L 7.546875 -6.25 L 7.546875 -4.453125 L 2.96875 -4.453125 L 2.96875 -1.8125 L 8.078125 -1.8125 Z M 8.078125 0 "/></g></g></g><g fill="#000000" fill-opacity="1"><g transform="translate(229.352853, 254.227409)"><g><path d="M 7.265625 -4.640625 L 9.1875 0 L 7.046875 0 L 5.34375 -4.265625 L 2.96875 -4.265625 L 2.96875 0 L 0.953125 0 L 0.953125 -10.6875 L 5.5625 -10.6875 C 6.226562 -10.6875 6.816406 -10.578125 7.328125 -10.359375 C 7.835938 -10.140625 8.234375 -9.796875 8.515625 -9.328125 C 8.804688 -8.867188 8.953125 -8.269531 8.953125 -7.53125 C 8.953125 -6.832031 8.800781 -6.234375 8.5 -5.734375 C 8.195312 -5.242188 7.785156 -4.878906 7.265625 -4.640625 Z M 5.28125 -8.875 L 2.96875 -8.875 L 2.96875 -6.03125 L 5.28125 -6.03125 C 5.820312 -6.03125 6.234375 -6.148438 6.515625 -6.390625 C 6.796875 -6.640625 6.9375 -7 6.9375 -7.46875 C 6.9375 -7.914062 6.789062 -8.257812 6.5 -8.5 C 6.21875 -8.75 5.8125 -8.875 5.28125 -8.875 Z M 5.28125 -8.875 "/></g></g></g><path stroke-linecap="butt" transform="matrix(0.75, 0, 0, 0.75, 100.553304, 233.127421)" fill="none" stroke-linejoin="miter" d="M 0.00184427 2.00198 L 231.856026 2.00198 " stroke="#000000" stroke-width="4" stroke-opacity="1" stroke-miterlimit="4"/></svg>